<?xml version="1.0" encoding="utf-8"?>
<!-- Generator: Adobe Illustrator 15.0.0, SVG Export Plug-In . SVG Version: 6.00 Build 0)  -->
<!DOCTYPE svg PUBLIC "-//W3C//DTD SVG 1.1//EN" "http://www.w3.org/Graphics/SVG/1.1/DTD/svg11.dtd">
<svg version="1.1" id="Layer_1" xmlns="http://www.w3.org/2000/svg" xmlns:xlink="http://www.w3.org/1999/xlink" x="0px" y="0px"
	 width="500px" height="500px" viewBox="0 0 500 500" enable-background="new 0 0 500 500" xml:space="preserve">
<path fill-rule="evenodd" clip-rule="evenodd" d="M341.242,127.147c2.46,0,4.92,0,7.379,0c14.804,1.108,20.63,18.678,10.063,28.848
	c10.359,2.363,19.868-0.869,27.509-3.354c1.654,3.822-0.546,7.973-2.015,10.734c7.286,8.538,26.395,4.446,33.544,13.418
	c2.624,3.291,3.372,8.53,2.015,15.431c5.518,3.651,12.11,6.226,14.758,12.746c0,1.565,0,3.131,0,4.697
	c-0.447,4.024-6.996,1.949-10.063,3.355c-9.303,51.969-22.335,100.214-65.076,118.747c4.029,7.961,3.313,14.461,10.064,20.799
	c4.368,4.104,19.69,5.837,20.125,12.074c0.993,14.206-31.063,2.405-34.885-0.671c-9.255-7.444-12.225-16.751-16.772-26.835
	c-59.664-1.236-123.426,2.05-183.824,0c-4.126,17.791-11.86,31.972-30.191,35.557c-4.249,0-8.498,0-12.747,0
	c-0.92-1.313-4.11-0.36-5.367-1.341c-3.293-14.869,14.408-12.827,20.127-20.799c5.767-8.036,2.951-11.866,8.05-20.127
	c-34.02-22.333-45.911-66.797-53-116.062c-5.951-0.312-14.051,1.526-15.431-3.355c0-1.342,0-2.684,0-4.025
	c3.911-6.377,10.187-10.387,17.444-13.417c-1.413-21.049,24.408-21.907,42.265-17.444c8.703-7.708,17.945-18.596,32.875-18.786
	c14.344-0.181,22.992,8.786,32.203,16.102c11.247-14.91,36.513-6.373,44.95,5.367c5.266-12.616,13.612-23.171,30.859-20.797
	c9.713,1.336,17.638,8.186,25.494,11.405c10.554-9.8,32.747-7.393,40.254,3.354c0.604-4.762,8.086-2.648,7.379-8.721
	c-2.991-0.721-6.543-6.829-13.417-8.722c-7.715-2.124-19.406,0.611-18.112-7.38c0.824-5.11,10.054-3.996,16.101-5.367
	C327.997,135.82,332.925,129.79,341.242,127.147z M361.367,138.553c-1.835-5.218-11.064-9.065-17.441-8.722
	c-8.981,0.486-13.709,9.006-17.443,14.089c0.909,10.496,8.176,14.635,16.771,17.444c-0.786,1.309-2.205,3.753-0.671,5.367
	c2.91,1.115,5.793,2.258,8.722,3.354c5.889-6.171,17.258-9.737,29.518-7.379c1.011-1.898,2.714-3.102,2.684-6.038
	c-8.337,2.816-20.515,4.809-28.846,0.67C356.617,150.425,364.144,146.442,361.367,138.553z M310.382,147.945
	c1.938,4.771,9.593,3.823,15.429,4.697c0.071-2.978-1.875-3.938-1.34-7.38C319.18,145.562,314.954,146.928,310.382,147.945z
	 M164.797,160.692c-18.767-3.158-29.316,10.164-38.911,18.786c-14.26-4.263-41.056-5.992-39.583,13.417
	c109.508-1.188,221.491,0.094,330.748-1.341c4.7-18.664-12.413-16.205-24.151-19.456c-4.231-1.172-8.062-5.514-13.417-6.708
	c-12.112-2.704-21.653,2.052-28.85,8.05c-8.138-8.275-16.674,0.919-20.127,3.355c-6.538-13.231-28.608-13.266-39.58-4.026
	c-10.046-5.052-20.233-14.198-34.216-12.076c-12.036,1.827-15.191,13.417-20.799,22.811c-8.142-6.166-16.677-17.931-31.531-15.431
	c-6.433,1.083-9.279,6.153-15.431,8.722C181.437,170.703,175.313,162.462,164.797,160.692z M376.127,194.236
	c-91.518,4.324-198.91-2.36-291.835,1.342c-5.471,4.184-15.907,6.854-15.431,14.76c58.76,2.558,119.948,0.67,181.139,0.67
	c60.963,0,122.8,0.237,181.14-2.684C428.955,190.426,397.821,193.211,376.127,194.236z M83.62,215.034
	c9.429,46.723,16.706,97.757,57.697,115.392c17.797,7.657,48.313,5.018,73.127,4.026c18.234-0.729,37.712,0,57.695,0
	c38.052,0,78.696,3.301,101.305-13.417c30.695-22.701,40.345-65.732,47.634-108.685C309.254,213.905,194.626,212.662,83.62,215.034z
	 M123.203,356.592c-5.034,3.494-15.608,3.415-14.76,12.748c26.765,4.142,38.947-11.405,42.266-32.876
	c-5.525-0.958-9.331-3.639-14.759-4.695C132.288,342.006,130.988,351.187,123.203,356.592z M340.571,336.464
	c5.339,14.914,16.903,32.104,35.556,32.204c3.912,0.02,8.981,0.164,10.065-4.026c-5.61-5.563-13.385-5.039-18.787-10.062
	c-6.15-5.725-6.265-14.875-12.074-21.471C350.704,334.523,345.916,335.773,340.571,336.464z"/>
<path fill-rule="evenodd" clip-rule="evenodd" fill="#FFFFFF" d="M354.66,157.337c8.331,4.139,20.509,2.146,28.846-0.67
	c0.03,2.936-1.673,4.14-2.684,6.038c-12.26-2.358-23.629,1.208-29.518,7.379c-2.929-1.096-5.812-2.238-8.722-3.354
	c-1.534-1.613-0.115-4.058,0.671-5.367c-8.596-2.809-15.862-6.948-16.771-17.444c3.734-5.083,8.462-13.603,17.443-14.089
	c6.377-0.344,15.606,3.504,17.441,8.722C364.144,146.442,356.617,150.425,354.66,157.337z M332.521,142.578
	c-0.295,2.307,0.265,3.76,0.669,5.367C344.417,152.49,339.687,134.993,332.521,142.578z"/>
<path fill-rule="evenodd" clip-rule="evenodd" d="M333.189,147.945c-0.404-1.606-0.964-3.06-0.669-5.367
	C339.687,134.993,344.417,152.49,333.189,147.945z"/>
<path fill-rule="evenodd" clip-rule="evenodd" fill="#FFFFFF" d="M324.471,145.262c-0.535,3.442,1.411,4.402,1.34,7.38
	c-5.836-0.874-13.491,0.074-15.429-4.697C314.954,146.928,319.18,145.562,324.471,145.262z"/>
<path fill-rule="evenodd" clip-rule="evenodd" fill="#FFFFFF" d="M188.95,176.794c6.152-2.569,8.998-7.639,15.431-8.722
	c14.854-2.5,23.389,9.265,31.531,15.431c5.607-9.394,8.763-20.984,20.799-22.811c13.982-2.122,24.17,7.024,34.216,12.076
	c10.972-9.239,33.042-9.205,39.58,4.026c3.453-2.436,11.989-11.63,20.127-3.355c7.196-5.999,16.737-10.754,28.85-8.05
	c5.355,1.194,9.186,5.536,13.417,6.708c11.738,3.251,28.852,0.792,24.151,19.456c-109.257,1.436-221.24,0.154-330.748,1.341
	c-1.473-19.409,25.323-17.68,39.583-13.417c9.595-8.622,20.145-21.944,38.911-18.786
	C175.313,162.462,181.437,170.703,188.95,176.794z"/>
<path fill-rule="evenodd" clip-rule="evenodd" fill="#FFFFFF" d="M431.14,208.325c-58.34,2.921-120.177,2.684-181.14,2.684
	c-61.191,0-122.379,1.888-181.139-0.67c-0.477-7.906,9.96-10.577,15.431-14.76c92.925-3.702,200.318,2.982,291.835-1.342
	C397.821,193.211,428.955,190.426,431.14,208.325z"/>
<path fill-rule="evenodd" clip-rule="evenodd" fill="#FFFFFF" d="M421.077,212.351c-7.289,42.952-16.938,85.983-47.634,108.685
	c-22.608,16.718-63.253,13.417-101.305,13.417c-19.982,0-39.461-0.729-57.695,0c-24.814,0.991-55.33,3.631-73.127-4.026
	c-40.991-17.635-48.268-68.669-57.697-115.392C194.626,212.662,309.254,213.905,421.077,212.351z"/>
<path fill-rule="evenodd" clip-rule="evenodd" fill="#FFFFFF" d="M135.95,331.769c5.428,1.057,9.234,3.737,14.759,4.695
	c-3.319,21.471-15.501,37.018-42.266,32.876c-0.848-9.333,9.727-9.254,14.76-12.748C130.988,351.187,132.288,342.006,135.95,331.769
	z"/>
<path fill-rule="evenodd" clip-rule="evenodd" fill="#FFFFFF" d="M355.331,333.109c5.81,6.596,5.924,15.746,12.074,21.471
	c5.402,5.022,13.177,4.498,18.787,10.062c-1.084,4.19-6.153,4.046-10.065,4.026c-18.652-0.101-30.217-17.29-35.556-32.204
	C345.916,335.773,350.704,334.523,355.331,333.109z"/>
</svg>
